<svg width="25" height="25" viewBox="0 0 25 25" fill="none" xmlns="http://www.w3.org/2000/svg">
<path opacity="0.2" d="M4.88929 16.7333C3.7711 14.8484 3.3795 12.62 3.78802 10.4667C4.19655 8.31339 5.37709 6.3833 7.10798 5.03883C8.83887 3.69436 11.001 3.028 13.1885 3.16488C15.3759 3.30176 17.4381 4.23247 18.9879 5.78224C20.5376 7.332 21.4684 9.39422 21.6053 11.5816C21.7421 13.7691 21.0758 15.9312 19.7313 17.6621C18.3869 19.393 16.4568 20.5736 14.3035 20.9821C12.1502 21.3906 9.92183 20.9991 8.03683 19.8809L8.03685 19.8808L4.92842 20.7689C4.79981 20.8056 4.66372 20.8073 4.53425 20.7738C4.40477 20.7402 4.28662 20.6727 4.19204 20.5781C4.09747 20.4835 4.0299 20.3654 3.99635 20.2359C3.9628 20.1064 3.96449 19.9703 4.00123 19.8417L4.88936 16.7333L4.88929 16.7333Z" fill="#514EFC"/>
<path d="M4.88929 16.7333C3.7711 14.8484 3.3795 12.62 3.78802 10.4667C4.19655 8.31339 5.37709 6.3833 7.10798 5.03883C8.83887 3.69436 11.001 3.028 13.1885 3.16488C15.3759 3.30176 17.4381 4.23247 18.9879 5.78224C20.5376 7.332 21.4684 9.39422 21.6053 11.5816C21.7421 13.7691 21.0758 15.9312 19.7313 17.6621C18.3869 19.393 16.4568 20.5736 14.3035 20.9821C12.1502 21.3906 9.92183 20.9991 8.03683 19.8809L8.03685 19.8808L4.92842 20.7689C4.79981 20.8056 4.66372 20.8073 4.53425 20.7738C4.40477 20.7402 4.28662 20.6727 4.19204 20.5781C4.09747 20.4835 4.0299 20.3654 3.99635 20.2359C3.9628 20.1064 3.96449 19.9703 4.00123 19.8417L4.88936 16.7333L4.88929 16.7333Z" stroke="#514EFC" stroke-width="2" stroke-linecap="round" stroke-linejoin="round"/>
<path d="M9.63037 10.6398H15.6304" stroke="#514EFC" stroke-width="2" stroke-linecap="round" stroke-linejoin="round"/>
<path d="M9.63037 13.6398H15.6304" stroke="#514EFC" stroke-width="2" stroke-linecap="round" stroke-linejoin="round"/>
</svg>


