<svg width="25" height="25" viewBox="0 0 25 25" fill="none" xmlns="http://www.w3.org/2000/svg">
<path opacity="0.2" d="M9.30002 11.8412C10.078 13.4317 11.3672 14.7151 12.9613 15.4858C13.0779 15.5411 13.2069 15.565 13.3356 15.5553C13.4643 15.5456 13.5882 15.5025 13.6952 15.4303L16.0423 13.8652C16.1461 13.796 16.2655 13.7537 16.3898 13.7423C16.514 13.7309 16.6392 13.7507 16.7538 13.7998L21.1448 15.6817C21.294 15.745 21.4185 15.8552 21.4996 15.9954C21.5808 16.1357 21.6141 16.2986 21.5947 16.4595C21.4559 17.5455 20.926 18.5437 20.1042 19.2671C19.2825 19.9906 18.2252 20.3897 17.1304 20.3898C13.7489 20.3898 10.5058 19.0465 8.11476 16.6554C5.72367 14.2643 4.38037 11.0213 4.38037 7.63977C4.38043 6.54493 4.77955 5.48766 5.50301 4.6659C6.22647 3.84415 7.22465 3.31428 8.31065 3.17549C8.47154 3.15602 8.6344 3.18936 8.77469 3.2705C8.91498 3.35163 9.0251 3.47616 9.08847 3.62532L10.972 8.02012C11.0207 8.1338 11.0405 8.25776 11.0297 8.38096C11.019 8.50417 10.9779 8.62279 10.9101 8.72627L9.35048 11.1094C9.27949 11.2166 9.23753 11.3404 9.22868 11.4686C9.21984 11.5969 9.24442 11.7253 9.30002 11.8412Z" fill="#514EFC"/>
<path d="M9.30002 11.8412C10.078 13.4317 11.3672 14.7151 12.9613 15.4858C13.0779 15.5411 13.2069 15.565 13.3356 15.5553C13.4643 15.5456 13.5882 15.5025 13.6952 15.4303L16.0423 13.8652C16.1461 13.796 16.2655 13.7537 16.3898 13.7423C16.514 13.7309 16.6392 13.7507 16.7538 13.7998L21.1448 15.6817C21.294 15.745 21.4185 15.8552 21.4996 15.9954C21.5808 16.1357 21.6141 16.2986 21.5947 16.4595C21.4559 17.5455 20.926 18.5437 20.1042 19.2671C19.2825 19.9906 18.2252 20.3897 17.1304 20.3898C13.7489 20.3898 10.5058 19.0465 8.11476 16.6554C5.72367 14.2643 4.38037 11.0213 4.38037 7.63977C4.38043 6.54493 4.77955 5.48766 5.50301 4.6659C6.22647 3.84415 7.22465 3.31428 8.31065 3.17549C8.47154 3.15602 8.6344 3.18936 8.77469 3.2705C8.91498 3.35163 9.0251 3.47616 9.08847 3.62532L10.972 8.02012C11.0207 8.1338 11.0405 8.25776 11.0297 8.38096C11.019 8.50417 10.9779 8.62279 10.9101 8.72627L9.35048 11.1094C9.27949 11.2166 9.23753 11.3404 9.22868 11.4686C9.21984 11.5969 9.24442 11.7253 9.30002 11.8412V11.8412Z" stroke="#514EFC" stroke-width="2" stroke-linecap="round" stroke-linejoin="round"/>
<path d="M15.5758 3.88977C16.8472 4.23171 18.0065 4.90173 18.9375 5.83271C19.8685 6.76369 20.5385 7.92296 20.8804 9.19439" stroke="#514EFC" stroke-width="2" stroke-linecap="round" stroke-linejoin="round"/>
<path d="M14.7991 6.78827C15.562 6.99343 16.2575 7.39544 16.8161 7.95403C17.3747 8.51263 17.7767 9.20819 17.9819 9.97104" stroke="#514EFC" stroke-width="2" stroke-linecap="round" stroke-linejoin="round"/>
</svg>
