<svg width="17" height="17" viewBox="0 0 17 17" fill="none" xmlns="http://www.w3.org/2000/svg">
<path fill-rule="evenodd" clip-rule="evenodd" d="M11.6304 7.65379C11.6304 8.24473 11.514 8.8299 11.2878 9.37586C11.0617 9.92183 10.7302 10.4179 10.3124 10.8358C9.89447 11.2536 9.39841 11.5851 8.85243 11.8113C8.30647 12.0374 7.72131 12.1538 7.13036 12.1538C6.53941 12.1538 5.95425 12.0374 5.40828 11.8113C4.86232 11.5851 4.36624 11.2536 3.94838 10.8358C3.53051 10.4179 3.19905 9.92183 2.9729 9.37586C2.74675 8.8299 2.63036 8.24473 2.63036 7.65379C2.63036 6.46031 3.10446 5.31572 3.94838 4.47181C4.79229 3.62789 5.93688 3.15379 7.13036 3.15379C8.32383 3.15379 9.46842 3.62789 10.3124 4.47181C11.1563 5.31572 11.6304 6.46031 11.6304 7.65379ZM10.8104 12.3938C9.60474 13.3298 8.08773 13.7711 6.56816 13.6279C5.04859 13.4848 3.6407 12.7679 2.63111 11.6232C1.62151 10.4785 1.08611 8.99208 1.13389 7.46654C1.18168 5.94099 1.80906 4.49099 2.88831 3.41174C3.96757 2.33249 5.41756 1.70511 6.94311 1.65732C8.46866 1.60954 9.95507 2.14494 11.0998 3.15454C12.2445 4.16413 12.9614 5.57202 13.1045 7.09159C13.2477 8.61115 12.8064 10.1282 11.8704 11.3338L14.9104 14.3738C14.9841 14.4425 15.0432 14.5253 15.0842 14.6173C15.1252 14.7093 15.1472 14.8086 15.149 14.9093C15.1508 15.01 15.1322 15.11 15.0945 15.2034C15.0568 15.2968 15.0006 15.3816 14.9294 15.4528C14.8582 15.5241 14.7734 15.5802 14.68 15.6179C14.5866 15.6556 14.4866 15.6742 14.3859 15.6724C14.2852 15.6706 14.1858 15.6486 14.0939 15.6076C14.0019 15.5666 13.9191 15.5075 13.8504 15.4338L10.8104 12.3938Z" fill="#1F2A33"/>
</svg>
